<svg xmlns="http://www.w3.org/2000/svg" width="29" height="28" viewBox="0 0 29 28" fill="none">
  <mask id="mask0_1_498" style="mask-type:alpha" maskUnits="userSpaceOnUse" x="0" y="0" width="29" height="28">
    <rect x="0.5" width="28" height="28" fill="#D9D9D9"/>
  </mask>
  <g mask="url(#mask0_1_498)">
    <path d="M6.68333 25.0833C6.1 25.0833 5.60416 24.8791 5.19583 24.4708C4.7875 24.0624 4.58333 23.5666 4.58333 22.9833V7.34992C4.58333 6.76659 4.7875 6.27075 5.19583 5.86242C5.60416 5.45409 6.1 5.24992 6.68333 5.24992H8.31666V2.77075H10.0958V5.24992H18.9333V2.77075H20.6833V5.24992H22.3167C22.9 5.24992 23.3958 5.45409 23.8042 5.86242C24.2125 6.27075 24.4167 6.76659 24.4167 7.34992V22.9833C24.4167 23.5666 24.2125 24.0624 23.8042 24.4708C23.3958 24.8791 22.9 25.0833 22.3167 25.0833H6.68333ZM6.68333 23.3333H22.3167C22.3944 23.3333 22.4722 23.2944 22.55 23.2166C22.6278 23.1388 22.6667 23.061 22.6667 22.9833V12.0166H6.33333V22.9833C6.33333 23.061 6.37222 23.1388 6.44999 23.2166C6.52777 23.2944 6.60555 23.3333 6.68333 23.3333ZM6.33333 10.2666H22.6667V7.34992C22.6667 7.27214 22.6278 7.19436 22.55 7.11659C22.4722 7.03881 22.3944 6.99992 22.3167 6.99992H6.68333C6.60555 6.99992 6.52777 7.03881 6.44999 7.11659C6.37222 7.19436 6.33333 7.27214 6.33333 7.34992V10.2666Z" fill="#FD6585"/>
  </g>
</svg>