<svg xmlns="http://www.w3.org/2000/svg" width="132" height="37" viewBox="0 0 132 37" fill="none">
                        <g opacity="0.6" clip-path="url(#clip0_1_459)">
                            <path d="M132 36.181C127.989 36.181 125.92 33.9403 124.087 31.9659C122.316 30.0542 120.655 28.2523 117.333 28.2523C114.011 28.2523 112.335 30.0542 110.58 31.9659C108.746 33.9403 106.678 36.181 102.667 36.181C98.6553 36.181 96.5869 33.9403 94.7692 31.9659C92.9986 30.0542 91.3376 28.2523 88.0157 28.2523C84.6937 28.2523 83.0171 30.0542 81.2621 31.9659C79.4288 33.9403 77.3604 36.181 73.3647 36.181C69.3689 36.181 67.2849 33.9403 65.4516 31.9659C63.6809 30.0542 62.0199 28.2523 58.698 28.2523C55.3761 28.2523 53.6994 30.0542 51.9444 31.9659C50.1111 33.9403 48.0427 36.181 44.0313 36.181C40.0199 36.181 37.9516 33.9403 36.1182 31.9659C34.3476 30.0542 32.6866 28.2523 29.3647 28.2523C26.0427 28.2523 24.3661 30.0542 22.5954 31.9659C20.7621 33.9403 18.6937 36.181 14.6823 36.181C10.6709 36.181 8.60256 33.9403 6.76923 31.9659C4.99858 30.0542 3.33761 28.2523 0 28.2523V26.6853C4.0114 26.6853 6.07977 28.926 7.91311 30.9004C9.68376 32.8121 11.3447 34.6141 14.6823 34.6141C18.0199 34.6141 19.6809 32.8121 21.4516 30.9004C23.2849 28.926 25.3533 26.6853 29.3647 26.6853C33.3761 26.6853 35.4444 28.926 37.2778 30.9004C39.0484 32.8121 40.7094 34.6141 44.0313 34.6141C47.3533 34.6141 49.0299 32.8121 50.7849 30.9004C52.6182 28.926 54.6866 26.6853 58.698 26.6853C62.7094 26.6853 64.7778 28.926 66.6111 30.9004C68.3818 32.8121 70.0427 34.6141 73.3647 34.6141C76.6866 34.6141 78.3476 32.8121 80.1182 30.9004C81.9516 28.926 84.0199 26.6853 88.0313 26.6853C92.0427 26.6853 94.1111 28.926 95.9444 30.9004C97.7151 32.8121 99.3761 34.6141 102.698 34.6141C106.02 34.6141 107.697 32.8121 109.452 30.9004C111.285 28.926 113.353 26.6853 117.365 26.6853C121.376 26.6853 123.444 28.926 125.278 30.9004C127.048 32.8121 128.709 34.6141 132.031 34.6141V36.181H132Z" fill="url(#paint0_linear_1_459)" />
                            <path d="M132 22.8307C127.989 22.8307 125.92 20.5899 124.087 18.6156C122.316 16.7039 120.655 14.9019 117.333 14.9019C114.011 14.9019 112.335 16.7039 110.58 18.6156C108.746 20.5899 106.678 22.8307 102.667 22.8307C98.6553 22.8307 96.5869 20.5899 94.7535 18.6156C92.9829 16.7039 91.3219 14.9019 88 14.9019C84.678 14.9019 83.0014 16.7039 81.2464 18.6156C79.4131 20.5899 77.3447 22.8307 73.349 22.8307C69.3533 22.8307 67.2692 20.5899 65.4359 18.6156C63.6652 16.7039 62.0043 14.9019 58.6823 14.9019C55.3604 14.9019 53.6837 16.7039 51.9288 18.6156C50.0954 20.5899 48.027 22.8307 44.0157 22.8307C40.0043 22.8307 37.9359 20.5899 36.1025 18.6156C34.3319 16.7039 32.6709 14.9019 29.349 14.9019C26.027 14.9019 24.3504 16.7039 22.5798 18.6156C20.7464 20.5899 18.678 22.8307 14.6666 22.8307C10.6553 22.8307 8.58688 20.5899 6.75354 18.6156C4.98289 16.7039 3.32192 14.9019 -0.015686 14.9019V13.335C3.99571 13.335 6.06409 15.5757 7.89742 17.5501C9.66807 19.4617 11.329 21.2637 14.6666 21.2637C18.0043 21.2637 19.6652 19.4617 21.4359 17.5501C23.2692 15.5757 25.3376 13.335 29.349 13.335C33.3604 13.335 35.4288 15.5757 37.2621 17.5501C39.0327 19.4617 40.6937 21.2637 44.0157 21.2637C47.3376 21.2637 49.0142 19.4617 50.7692 17.5501C52.6025 15.5757 54.6709 13.335 58.6823 13.335C62.6937 13.335 64.7621 15.5757 66.5954 17.5501C68.3661 19.4617 70.027 21.2637 73.349 21.2637C76.6709 21.2637 78.3319 19.4617 80.1025 17.5501C81.9359 15.5757 84.0042 13.335 88.0156 13.335C92.027 13.335 94.0954 15.5757 95.9288 17.5501C97.6994 19.4617 99.3604 21.2637 102.682 21.2637C106.004 21.2637 107.681 19.4617 109.436 17.5501C111.269 15.5757 113.338 13.335 117.349 13.335C121.36 13.335 123.429 15.5757 125.262 17.5501C127.033 19.4617 128.694 21.2637 132.016 21.2637V22.8307H132Z" fill="url(#paint1_linear_1_459)" />
                            <path d="M132 9.48006C127.989 9.48006 125.92 7.23932 124.087 5.26496C122.316 3.35328 120.655 1.55128 117.333 1.55128C114.011 1.55128 112.335 3.35328 110.58 5.26496C108.746 7.23932 106.678 9.48006 102.667 9.48006C98.6553 9.48006 96.5869 7.23932 94.7692 5.26496C92.9986 3.35328 91.3376 1.55128 88.0157 1.55128C84.6937 1.55128 83.0171 3.35328 81.2621 5.26496C79.4288 7.23932 77.3604 9.48006 73.3647 9.48006C69.3689 9.48006 67.2849 7.23932 65.4516 5.26496C63.6809 3.35328 62.0199 1.55128 58.698 1.55128C55.3761 1.55128 53.6994 3.35328 51.9444 5.26496C50.1111 7.23932 48.0427 9.48006 44.0313 9.48006C40.0199 9.48006 37.9516 7.23932 36.1182 5.26496C34.3476 3.35328 32.6866 1.55128 29.3647 1.55128C26.0427 1.55128 24.3661 3.35328 22.5954 5.26496C20.7621 7.23932 18.6937 9.48006 14.6823 9.48006C10.6709 9.48006 8.60256 7.23932 6.76923 5.26496C4.99858 3.36895 3.32194 1.56695 0 1.56695V0C4.0114 0 6.07977 2.24074 7.91311 4.2151C9.68376 6.12678 11.3447 7.92878 14.6823 7.92878C18.0199 7.92878 19.6809 6.12678 21.4516 4.2151C23.2849 2.24074 25.3533 0 29.3647 0C33.3761 0 35.4444 2.24074 37.2778 4.2151C39.0484 6.12678 40.7094 7.92878 44.0313 7.92878C47.3533 7.92878 49.0299 6.12678 50.7849 4.2151C52.6182 2.24074 54.6866 0 58.698 0C62.7094 0 64.7778 2.24074 66.6111 4.2151C68.3818 6.12678 70.0427 7.92878 73.3647 7.92878C76.6866 7.92878 78.3476 6.12678 80.1182 4.2151C81.9516 2.24074 84.0199 0 88.0313 0C92.0427 0 94.1111 2.24074 95.9444 4.2151C97.7151 6.12678 99.3761 7.92878 102.698 7.92878C106.02 7.92878 107.697 6.12678 109.452 4.2151C111.285 2.24074 113.353 0 117.365 0C121.376 0 123.444 2.24074 125.278 4.2151C127.048 6.12678 128.709 7.92878 132.031 7.92878V9.49573L132 9.48006Z" fill="url(#paint2_linear_1_459)" />
                        </g>
                        <defs>
                            <linearGradient id="paint0_linear_1_459" x1="66.0157" y1="26.6853" x2="66.0157" y2="36.181" gradientUnits="userSpaceOnUse">
                                <stop stop-color="#61E8EC" />
                                <stop offset="1" stop-color="#1F2636" stop-opacity="0" />
                            </linearGradient>
                            <linearGradient id="paint1_linear_1_459" x1="66" y1="13.335" x2="66" y2="22.8307" gradientUnits="userSpaceOnUse">
                                <stop stop-color="#61E8EC" />
                                <stop offset="1" stop-color="#1F2636" stop-opacity="0" />
                            </linearGradient>
                            <linearGradient id="paint2_linear_1_459" x1="66.0157" y1="0" x2="66.0157" y2="9.49573" gradientUnits="userSpaceOnUse">
                                <stop stop-color="#61E8EC" />
                                <stop offset="1" stop-color="#1F2636" stop-opacity="0" />
                            </linearGradient>
                            <clipPath id="clip0_1_459">
                                <rect width="132" height="36.1809" fill="white" />
                            </clipPath>
                        </defs>
                    </svg>