<svg xmlns="http://www.w3.org/2000/svg" width="60" height="61" viewBox="0 0 60 61" fill="none">
  <circle opacity="0.2" cx="30" cy="30.5" r="30" fill="#D6377F"/>
  <mask id="mask0_1_249" style="mask-type:alpha" maskUnits="userSpaceOnUse" x="12" y="12" width="36" height="37">
    <rect x="12" y="12.5" width="36" height="36" fill="#D6377F"/>
  </mask>
  <g mask="url(#mask0_1_249)">
    <path d="M24 39.5C23.575 39.5 23.2185 39.356 22.9305 39.068C22.6435 38.781 22.5 38.425 22.5 38C22.5 37.575 22.6435 37.219 22.9305 36.932C23.2185 36.644 23.575 36.5 24 36.5C24.425 36.5 24.7815 36.644 25.0695 36.932C25.3565 37.219 25.5 37.575 25.5 38C25.5 38.425 25.3565 38.781 25.0695 39.068C24.7815 39.356 24.425 39.5 24 39.5ZM24 33.5C23.575 33.5 23.2185 33.356 22.9305 33.068C22.6435 32.781 22.5 32.425 22.5 32C22.5 31.575 22.6435 31.2185 22.9305 30.9305C23.2185 30.6435 23.575 30.5 24 30.5C24.425 30.5 24.7815 30.6435 25.0695 30.9305C25.3565 31.2185 25.5 31.575 25.5 32C25.5 32.425 25.3565 32.781 25.0695 33.068C24.7815 33.356 24.425 33.5 24 33.5ZM30 39.5C29.575 39.5 29.219 39.356 28.932 39.068C28.644 38.781 28.5 38.425 28.5 38C28.5 37.575 28.644 37.219 28.932 36.932C29.219 36.644 29.575 36.5 30 36.5C30.425 36.5 30.7815 36.644 31.0695 36.932C31.3565 37.219 31.5 37.575 31.5 38C31.5 38.425 31.3565 38.781 31.0695 39.068C30.7815 39.356 30.425 39.5 30 39.5ZM30 33.5C29.575 33.5 29.219 33.356 28.932 33.068C28.644 32.781 28.5 32.425 28.5 32C28.5 31.575 28.644 31.2185 28.932 30.9305C29.219 30.6435 29.575 30.5 30 30.5C30.425 30.5 30.7815 30.6435 31.0695 30.9305C31.3565 31.2185 31.5 31.575 31.5 32C31.5 32.425 31.3565 32.781 31.0695 33.068C30.7815 33.356 30.425 33.5 30 33.5ZM36 39.5C35.575 39.5 35.219 39.356 34.932 39.068C34.644 38.781 34.5 38.425 34.5 38C34.5 37.575 34.644 37.219 34.932 36.932C35.219 36.644 35.575 36.5 36 36.5C36.425 36.5 36.781 36.644 37.068 36.932C37.356 37.219 37.5 37.575 37.5 38C37.5 38.425 37.356 38.781 37.068 39.068C36.781 39.356 36.425 39.5 36 39.5ZM36 33.5C35.575 33.5 35.219 33.356 34.932 33.068C34.644 32.781 34.5 32.425 34.5 32C34.5 31.575 34.644 31.2185 34.932 30.9305C35.219 30.6435 35.575 30.5 36 30.5C36.425 30.5 36.781 30.6435 37.068 30.9305C37.356 31.2185 37.5 31.575 37.5 32C37.5 32.425 37.356 32.781 37.068 33.068C36.781 33.356 36.425 33.5 36 33.5ZM19.5 45.5C18.675 45.5 17.9685 45.2065 17.3805 44.6195C16.7935 44.0315 16.5 43.325 16.5 42.5V21.5C16.5 20.675 16.7935 19.969 17.3805 19.382C17.9685 18.794 18.675 18.5 19.5 18.5H21V15.5H24V18.5H36V15.5H39V18.5H40.5C41.325 18.5 42.0315 18.794 42.6195 19.382C43.2065 19.969 43.5 20.675 43.5 21.5V42.5C43.5 43.325 43.2065 44.0315 42.6195 44.6195C42.0315 45.2065 41.325 45.5 40.5 45.5H19.5ZM19.5 42.5H40.5V27.5H19.5V42.5ZM19.5 24.5H40.5V21.5H19.5V24.5Z" fill="#D6377F"/>
  </g>
</svg>