<svg xmlns="http://www.w3.org/2000/svg" width="60" height="61" viewBox="0 0 60 61" fill="none">
  <circle opacity="0.2" cx="30" cy="30.5" r="30" fill="#D6377F"/>
  <mask id="mask0_1_258" style="mask-type:alpha" maskUnits="userSpaceOnUse" x="12" y="12" width="36" height="37">
    <rect x="12" y="12.5" width="36" height="36" fill="#D6377F"/>
  </mask>
  <g mask="url(#mask0_1_258)">
    <path d="M30 37.2125C32.475 35.2125 34.344 33.2875 35.607 31.4375C36.869 29.5875 37.5 27.85 37.5 26.225C37.5 24.825 37.244 23.631 36.732 22.643C36.219 21.656 35.5875 20.856 34.8375 20.243C34.0875 19.631 33.275 19.1875 32.4 18.9125C31.525 18.6375 30.725 18.5 30 18.5C29.275 18.5 28.475 18.6375 27.6 18.9125C26.725 19.1875 25.9125 19.631 25.1625 20.243C24.4125 20.856 23.7815 21.656 23.2695 22.643C22.7565 23.631 22.5 24.825 22.5 26.225C22.5 27.85 23.131 29.5875 24.393 31.4375C25.656 33.2875 27.525 35.2125 30 37.2125ZM30 41C26.475 38.4 23.8435 35.875 22.1055 33.425C20.3685 30.975 19.5 28.575 19.5 26.225C19.5 24.45 19.819 22.8935 20.457 21.5555C21.094 20.2185 21.9125 19.1 22.9125 18.2C23.9125 17.3 25.0375 16.625 26.2875 16.175C27.5375 15.725 28.775 15.5 30 15.5C31.225 15.5 32.4625 15.725 33.7125 16.175C34.9625 16.625 36.0875 17.3 37.0875 18.2C38.0875 19.1 38.9065 20.2185 39.5445 21.5555C40.1815 22.8935 40.5 24.45 40.5 26.225C40.5 28.575 39.631 30.975 37.893 33.425C36.156 35.875 33.525 38.4 30 41ZM30 29C30.825 29 31.5315 28.706 32.1195 28.118C32.7065 27.531 33 26.825 33 26C33 25.175 32.7065 24.4685 32.1195 23.8805C31.5315 23.2935 30.825 23 30 23C29.175 23 28.469 23.2935 27.882 23.8805C27.294 24.4685 27 25.175 27 26C27 26.825 27.294 27.531 27.882 28.118C28.469 28.706 29.175 29 30 29ZM19.5 45.5V42.5H40.5V45.5H19.5Z" fill="#D6377F"/>
  </g>
</svg>